<svg width="16" height="16" viewBox="0 0 16 16" fill="none" xmlns="http://www.w3.org/2000/svg">
<g id="icon/file">
<path id="Vector" d="M5.33464 10.6663L10.668 10.6663L10.668 11.9997L5.33464 11.9997L5.33464 10.6663ZM5.33464 7.99967L10.668 7.99967L10.668 9.33301L5.33464 9.33301L5.33464 7.99967ZM9.33464 1.33301L4.0013 1.33301C3.26797 1.33301 2.66797 1.93301 2.66797 2.66634L2.66797 13.333C2.66797 14.0663 3.2613 14.6663 3.99464 14.6663L12.0013 14.6663C12.7346 14.6663 13.3346 14.0663 13.3346 13.333L13.3346 5.33301L9.33464 1.33301ZM12.0013 13.333L4.0013 13.333L4.0013 2.66634L8.66797 2.66634L8.66797 5.99967L12.0013 5.99968L12.0013 13.333Z" fill="#788597"/>
</g>
</svg>
